<?xml version="1.0" standalone="no"?>
<!DOCTYPE svg PUBLIC "-//W3C//DTD SVG 20010904//EN"
 "http://www.w3.org/TR/2001/REC-SVG-20010904/DTD/svg10.dtd">
<svg version="1.0" xmlns="http://www.w3.org/2000/svg"
 width="559.000000pt" height="74.000000pt" viewBox="0 0 559.000000 74.000000"
 preserveAspectRatio="xMidYMid meet">

<g transform="translate(0.000000,74.000000) scale(0.100000,-0.100000)"
fill="#000000" stroke="none">
<path d="M1090 370 l0 -360 55 0 55 0 0 139 0 138 76 5 c84 6 115 22 149 79
17 28 20 52 20 139 0 126 -16 162 -85 198 -38 19 -60 22 -157 22 l-113 0 0
-360z m221 241 c22 -17 24 -27 24 -99 0 -101 -15 -122 -87 -122 l-48 0 0 120
0 120 44 0 c28 0 52 -7 67 -19z"/>
<path d="M1920 370 l0 -360 50 0 50 0 0 73 c1 58 5 79 25 112 l24 39 15 -36
c9 -20 29 -69 45 -110 l29 -73 56 -3 c31 -2 56 0 56 3 0 4 -30 76 -66 161
l-66 154 66 106 66 105 -57 -3 -57 -3 -66 -110 -65 -110 -3 208 -2 207 -50 0
-50 0 0 -360z"/>
<path d="M2473 667 c-18 -35 -33 -66 -33 -70 0 -4 15 -7 34 -7 31 0 37 6 75
66 22 36 41 67 41 70 0 2 -19 4 -42 4 -43 0 -43 -1 -75 -63z"/>
<path d="M4320 680 l0 -50 60 0 60 0 0 -310 0 -310 55 0 55 0 0 310 0 310 60
0 60 0 0 50 0 50 -175 0 -175 0 0 -50z"/>
<path d="M4855 723 c-38 -9 -87 -56 -109 -102 -19 -42 -21 -63 -21 -251 0
-188 2 -209 21 -251 66 -142 261 -145 325 -4 10 22 19 50 19 63 0 20 -5 22
-55 22 -47 0 -55 -3 -55 -19 0 -31 -39 -71 -69 -71 -61 0 -81 63 -81 260 0
197 20 260 81 260 30 0 69 -40 69 -71 0 -16 8 -19 55 -19 63 0 68 10 39 78
-36 88 -121 129 -219 105z"/>
<path d="M5305 723 c-38 -9 -87 -56 -109 -102 -19 -42 -21 -63 -21 -251 0
-234 9 -272 81 -326 32 -25 46 -29 103 -29 83 0 130 26 160 89 18 36 21 61 21
169 l0 127 -90 0 -90 0 0 -45 c0 -45 0 -45 35 -45 l35 0 0 -74 c0 -60 -4 -78
-21 -100 -28 -36 -73 -33 -103 7 -18 24 -21 45 -24 180 -6 227 15 307 79 307
30 0 69 -40 69 -71 0 -16 8 -19 55 -19 63 0 68 10 39 78 -36 88 -121 129 -219
105z"/>
<path d="M4 656 c-11 -28 4 -102 30 -154 23 -46 101 -128 143 -151 19 -10 20
-15 12 -48 -6 -21 -17 -57 -26 -80 -22 -60 -13 -126 22 -163 32 -33 78 -55
100 -46 37 14 3 121 -45 139 -34 13 -36 20 -15 61 8 15 15 39 15 53 0 13 7 38
16 54 20 39 14 53 -33 76 -45 21 -123 96 -123 118 0 8 9 24 20 35 16 16 25 18
40 10 24 -13 82 -84 105 -129 13 -25 21 -32 38 -28 12 2 50 10 85 18 52 11 72
11 125 0 34 -8 72 -16 84 -18 17 -4 25 3 38 28 23 45 81 116 105 129 15 8 24
6 40 -10 11 -11 20 -27 20 -35 0 -22 -77 -96 -125 -121 -28 -14 -39 -26 -38
-40 3 -28 24 -104 39 -141 19 -43 18 -47 -16 -60 -48 -18 -82 -125 -45 -139
22 -9 68 13 100 46 35 37 44 103 22 163 -9 23 -20 59 -26 80 -8 33 -7 38 12
48 43 23 120 105 144 154 18 34 26 67 27 105 l1 55 -52 -1 c-69 -2 -144 -44
-200 -112 -22 -28 -45 -58 -50 -67 -8 -14 -17 -15 -76 -4 -53 10 -81 10 -134
0 -59 -11 -68 -10 -76 4 -27 48 -98 121 -143 147 -65 36 -150 49 -160 24z"/>
<path d="M1600 522 c-65 -32 -75 -66 -75 -247 0 -181 10 -214 75 -248 45 -24
130 -19 168 10 59 44 67 74 67 238 0 140 -2 153 -24 192 -14 24 -38 49 -57 58
-43 20 -111 19 -154 -3z m109 -91 c24 -24 36 -126 27 -218 -10 -95 -27 -119
-76 -106 -32 9 -40 42 -40 174 0 114 1 121 25 144 29 30 39 31 64 6z"/>
<path d="M2375 507 c-18 -18 -38 -51 -44 -72 -14 -51 -14 -268 0 -320 21 -79
96 -124 180 -110 63 11 105 55 123 128 6 27 6 27 -47 27 -49 0 -53 -2 -64 -30
-9 -24 -17 -30 -41 -30 -40 0 -52 18 -59 84 l-6 56 113 0 113 0 -6 91 c-12
162 -50 209 -168 209 -56 0 -64 -3 -94 -33z m137 -74 c9 -10 18 -39 21 -65 l5
-48 -61 0 -60 0 6 51 c4 28 12 57 18 65 16 19 53 18 71 -3z"/>
<path d="M2856 519 c-21 -17 -26 -18 -26 -5 0 12 -11 16 -50 16 l-50 0 0 -260
0 -260 50 0 50 0 0 193 c0 214 6 240 55 245 51 6 55 -10 55 -235 l0 -203 50 0
50 0 0 193 c0 221 5 242 60 242 55 0 60 -21 60 -242 l0 -193 50 0 50 0 0 204
c0 112 -3 218 -6 235 -4 18 -20 45 -36 62 -25 25 -37 29 -83 29 -42 0 -60 -5
-82 -24 l-28 -24 -28 24 c-37 31 -103 33 -141 3z"/>
<path d="M3420 522 c-65 -32 -75 -66 -75 -247 0 -181 10 -214 75 -248 45 -24
130 -19 168 10 59 44 67 74 67 238 0 140 -2 153 -24 192 -14 24 -38 49 -57 58
-43 20 -111 19 -154 -3z m109 -91 c24 -24 36 -126 27 -218 -10 -95 -27 -119
-76 -106 -32 9 -40 42 -40 174 0 114 1 121 25 144 29 30 39 31 64 6z"/>
<path d="M3876 519 c-21 -17 -26 -18 -26 -5 0 12 -11 16 -50 16 l-50 0 0 -260
0 -260 50 0 50 0 0 193 c0 214 6 240 55 245 51 6 55 -10 55 -235 l0 -203 55 0
55 0 0 198 c0 238 -4 264 -42 303 -24 24 -38 29 -77 29 -34 0 -56 -6 -75 -21z"/>
<path d="M312 268 c-17 -17 -15 -53 3 -68 38 -31 96 27 65 65 -15 18 -51 20
-68 3z"/>
<path d="M522 268 c-17 -17 -15 -53 3 -68 38 -31 96 27 65 65 -15 18 -51 20
-68 3z"/>
<path d="M425 180 c-8 -13 20 -24 41 -16 20 8 9 26 -16 26 -10 0 -22 -5 -25
-10z"/>
</g>
</svg>
